<?xml version="1.0" standalone="no"?>
<!DOCTYPE svg PUBLIC "-//W3C//DTD SVG 20010904//EN"
 "http://www.w3.org/TR/2001/REC-SVG-20010904/DTD/svg10.dtd">
<svg version="1.0" xmlns="http://www.w3.org/2000/svg"
 width="380.000000pt" height="380.000000pt" viewBox="0 0 380.000000 380.000000"
 preserveAspectRatio="xMidYMid meet">
<metadata>
Created by potrace 1.11, written by Peter Selinger 2001-2013
</metadata>
<g transform="translate(0.000000,380.000000) scale(0.100000,-0.100000)"
fill="#000000" stroke="none">
<path d="M863 3590 l0 -210 286 2 286 3 0 205 0 205 -286 3 -286 2 0 -210z"/>
<path d="M1614 3590 l0 -210 286 2 285 3 1 208 0 207 -286 0 -287 0 1 -210z"/>
<path d="M2365 3590 l0 -210 203 -1 c251 -1 283 -1 331 0 l38 1 0 210 0 210
-286 0 -286 0 0 -210z"/>
<path d="M743 3056 l-123 -122 0 -1035 0 -1034 124 -122 123 -123 1033 0 1033
0 124 124 123 124 0 1033 0 1034 -124 123 -123 122 -1034 -1 -1034 0 -122
-123z m1938 -376 c1 -3 3 -355 3 -782 2 -535 -1 -778 -8 -781 -6 -2 -360 -3
-786 -3 l-775 1 -1 780 c0 429 0 782 2 785 3 7 1564 7 1565 0z"/>
<path d="M1333 2462 c-3 -7 -6 -264 -7 -572 l-1 -560 25 -1 c32 -1 1090 -1
1110 0 13 1 15 71 15 571 0 373 -3 570 -10 571 -5 0 -261 1 -569 2 -444 2
-560 -1 -563 -11z"/>
<path d="M2 2651 l3 -286 208 0 207 0 1 167 c0 93 0 188 0 213 0 25 0 78 0
119 l-1 73 -210 0 -210 -1 2 -285z"/>
<path d="M3379 2859 c0 -102 0 -465 0 -481 1 -10 49 -13 209 -13 l207 0 3 286
2 286 -210 0 -210 0 -1 -78z"/>
<path d="M5 2181 c-3 -2 -5 -131 -5 -286 l0 -282 208 1 207 1 3 286 2 285
-205 0 c-113 0 -208 -2 -210 -5z"/>
<path d="M3379 2071 c-1 -232 2 -444 6 -451 2 -4 95 -6 207 -6 l203 1 3 286 2
285 -210 0 -210 0 -1 -115z"/>
<path d="M4 1431 c-2 -2 -4 -131 -4 -286 l0 -282 210 0 210 0 -2 286 -3 286
-203 0 c-112 0 -205 -2 -208 -4z"/>
<path d="M3379 1385 c0 -43 0 -270 1 -461 l0 -61 210 0 210 0 -2 286 -3 286
-207 0 -208 0 -1 -50z"/>
<path d="M883 422 l-23 -3 0 -210 0 -209 289 0 288 0 1 213 0 212 -266 0
c-147 0 -277 -1 -289 -3z"/>
<path d="M1638 420 l-23 -6 -1 -207 -1 -207 287 0 286 0 0 210 0 210 -25 0
c-267 4 -505 4 -523 0z"/>
<path d="M2405 420 l-40 -5 0 -205 0 -205 285 0 285 0 1 208 1 207 -86 0 c-47
1 -158 2 -246 3 -88 1 -178 0 -200 -3z"/>
</g>
</svg>
